<?xml version="1.0" encoding="UTF-8"?>
<!-- Generator: Adobe Illustrator 23.0.6, SVG Export Plug-In . SVG Version: 6.00 Build 0)  -->
<svg version="1.1" id="Capa_1" xmlns="http://www.w3.org/2000/svg" xmlns:xlink="http://www.w3.org/1999/xlink" x="0px" y="0px" viewBox="0 0 360 78" style="enable-background:new 0 0 360 78;" xml:space="preserve" width="360px" height="78px">
<style type="text/css">
	.st0{fill:#00B5FC;}
	.st1{fill:#262424;}
	.st2{fill:#626365;}
</style>
<g>
	<g>
		<g>
			<rect x="51.6" y="70.9" class="st0" width="86.3" height="2.6"/>
		</g>
		<g>
			<path class="st1" d="M56.6,5.5h24.8v4.6H62.3v13.8h17.6v4.6H62.3v19h-5.7C56.6,47.5,56.6,5.5,56.6,5.5z"/>
			<path class="st1" d="M127.3,29c-0.3-5.9-0.8-13.3-0.8-18.6l0,0c-1.6,4.9-3.6,10.3-6,16.3l-8.1,20.6h-4.5l-7.5-20.4     c-2.2-6.1-3.9-11.6-5.2-16.6h-0.1c-0.3,5.3-0.6,12.7-1,19.1l-1.2,18.1h-5.4l3.1-42h7.5l7.8,20.7c1.9,5,3.4,9.8,4.6,14.1h0.1     c1.2-4.1,2.9-8.9,4.9-14.1l8.3-20.7h7.5l2.7,42h-5.6L127.3,29z"/>
		</g>
	</g>
	<g>
		<g>
			<path class="st2" d="M164.7,20.2h10.4v2.1h-7.9v6.4h7.3v2.1h-7.3v8.7h-2.5V20.2z"/>
			<path class="st2" d="M184.9,39.4l-0.2-1.7h-0.1c-0.8,1.1-2.3,2.1-4.2,2.1c-2.8,0-4.2-2-4.2-4c0-3.3,3-5.2,8.3-5.1v-0.3     c0-1.1-0.3-3.2-3.1-3.2c-1.3,0-2.6,0.4-3.6,1l-0.6-1.7c1.1-0.7,2.8-1.2,4.5-1.2c4.2,0,5.3,2.9,5.3,5.7v5.2c0,1.2,0.1,2.4,0.2,3.3     L184.9,39.4L184.9,39.4z M184.5,32.4c-2.7-0.1-5.9,0.4-5.9,3.1c0,1.6,1.1,2.4,2.4,2.4c1.8,0,2.9-1.1,3.3-2.3     c0.1-0.3,0.1-0.5,0.1-0.8L184.5,32.4L184.5,32.4z"/>
			<path class="st2" d="M200.8,38.9c-0.7,0.3-2.1,0.8-4,0.8c-4.2,0-6.9-2.8-6.9-7.1s2.9-7.3,7.4-7.3c1.5,0,2.8,0.4,3.5,0.7l-0.6,1.9     c-0.6-0.3-1.5-0.7-2.9-0.7c-3.2,0-4.9,2.3-4.9,5.2c0,3.2,2.1,5.2,4.8,5.2c1.4,0,2.4-0.4,3.1-0.7L200.8,38.9z"/>
			<path class="st2" d="M215.4,35.7c0,1.4,0,2.7,0.1,3.8h-2.2l-0.1-2.3h-0.1c-0.7,1.1-2.1,2.6-4.6,2.6c-2.2,0-4.8-1.2-4.8-6.1v-8.1     h2.5v7.7c0,2.6,0.8,4.4,3.1,4.4c1.7,0,2.9-1.2,3.3-2.3c0.1-0.4,0.2-0.8,0.2-1.3v-8.5h2.5v10.1H215.4z"/>
			<path class="st2" d="M219.5,19.1h2.5v20.3h-2.5V19.1z"/>
			<path class="st2" d="M229.3,21.6v4h3.6v1.9h-3.6V35c0,1.7,0.5,2.7,1.9,2.7c0.7,0,1.1-0.1,1.5-0.2l0.1,1.9     c-0.5,0.2-1.3,0.3-2.2,0.3c-1.2,0-2.1-0.4-2.7-1.1c-0.7-0.7-1-2-1-3.6v-7.5h-2.1v-1.9h2.1v-3.3L229.3,21.6z"/>
			<path class="st2" d="M243.4,39.4l-0.2-1.7h-0.1c-0.8,1.1-2.3,2.1-4.2,2.1c-2.8,0-4.2-2-4.2-4c0-3.3,3-5.2,8.3-5.1v-0.3     c0-1.1-0.3-3.2-3.1-3.2c-1.3,0-2.6,0.4-3.6,1l-0.6-1.7c1.1-0.7,2.8-1.2,4.5-1.2c4.2,0,5.3,2.9,5.3,5.7v5.2c0,1.2,0.1,2.4,0.2,3.3     L243.4,39.4L243.4,39.4z M243,32.4c-2.7-0.1-5.9,0.4-5.9,3.1c0,1.6,1.1,2.4,2.4,2.4c1.8,0,2.9-1.1,3.3-2.3     c0.1-0.3,0.1-0.5,0.1-0.8L243,32.4L243,32.4z"/>
			<path class="st2" d="M261.4,19.1v16.7c0,1.2,0,2.6,0.1,3.6h-2.3l-0.1-2.4H259c-0.8,1.5-2.5,2.7-4.7,2.7c-3.3,0-5.9-2.8-5.9-7     c0-4.6,2.8-7.4,6.2-7.4c2.1,0,3.5,1,4.2,2.1h0.1v-8.3C258.9,19.1,261.4,19.1,261.4,19.1z M258.9,31.2c0-0.3,0-0.7-0.1-1.1     c-0.4-1.6-1.7-2.9-3.6-2.9c-2.6,0-4.1,2.3-4.1,5.3c0,2.8,1.4,5.1,4.1,5.1c1.7,0,3.2-1.1,3.7-3c0.1-0.3,0.1-0.7,0.1-1.1v-2.3     H258.9z"/>
			<path class="st2" d="M283.6,19.1v16.7c0,1.2,0,2.6,0.1,3.6h-2.3l-0.1-2.4h-0.1c-0.8,1.5-2.5,2.7-4.7,2.7c-3.3,0-5.9-2.8-5.9-7     c0-4.6,2.8-7.4,6.2-7.4c2.1,0,3.5,1,4.2,2.1h0.1v-8.3C281.1,19.1,283.6,19.1,283.6,19.1z M281.1,31.2c0-0.3,0-0.7-0.1-1.1     c-0.4-1.6-1.7-2.9-3.6-2.9c-2.6,0-4.1,2.3-4.1,5.3c0,2.8,1.4,5.1,4.1,5.1c1.7,0,3.2-1.1,3.7-3c0.1-0.3,0.1-0.7,0.1-1.1v-2.3     H281.1z"/>
			<path class="st2" d="M289.1,33c0.1,3.4,2.2,4.8,4.7,4.8c1.8,0,2.9-0.3,3.8-0.7l0.4,1.8c-0.9,0.4-2.4,0.9-4.6,0.9     c-4.3,0-6.8-2.8-6.8-7s2.5-7.5,6.5-7.5c4.5,0,5.7,4,5.7,6.5c0,0.5-0.1,0.9-0.1,1.2H289.1z M296.5,31.2c0-1.6-0.7-4.1-3.5-4.1     c-2.5,0-3.7,2.3-3.9,4.1H296.5z"/>
		</g>
		<g>
			<path class="st2" d="M180.7,65.8c-0.1-2.3-0.2-5.1-0.2-7.9h-0.1c-0.6,2.5-1.4,5.2-2.1,7.5l-2.3,7.5h-3.5l-2.1-7.5     c-0.6-2.3-1.3-5-1.7-7.5h-0.1c-0.1,2.6-0.2,5.6-0.3,8l-0.3,7.3h-4l1.2-19.2h5.8l1.9,6.4c0.6,2.2,1.2,4.6,1.6,6.9h0.1     c0.5-2.2,1.2-4.8,1.8-6.9l2.1-6.4h5.7l1.1,19.2H181L180.7,65.8z"/>
			<path class="st2" d="M191.8,67.6c0.1,1.8,1.9,2.7,3.9,2.7c1.5,0,2.7-0.2,3.9-0.6l0.6,2.9c-1.4,0.6-3.2,0.9-5.1,0.9     c-4.7,0-7.5-2.7-7.5-7.1c0-3.5,2.2-7.5,7.1-7.5c4.5,0,6.2,3.5,6.2,7c0,0.7-0.1,1.4-0.1,1.7H191.8z M196.9,64.6     c0-1.1-0.5-2.8-2.5-2.8c-1.8,0-2.6,1.7-2.7,2.8H196.9z"/>
			<path class="st2" d="M217.1,52.9V69c0,1.6,0.1,3.2,0.1,4.2h-3.9l-0.2-2.1H213c-0.9,1.6-2.6,2.4-4.4,2.4c-3.3,0-6-2.8-6-7.2     c0-4.7,2.9-7.4,6.3-7.4c1.7,0,3.1,0.6,3.7,1.6h0.1v-7.6H217.1z M212.8,65.1c0-0.2,0-0.5-0.1-0.8c-0.3-1.2-1.2-2.1-2.5-2.1     c-2,0-3,1.8-3,4c0,2.4,1.2,3.9,3,3.9c1.3,0,2.3-0.9,2.5-2.1c0.1-0.3,0.1-0.6,0.1-1V65.1z"/>
			<path class="st2" d="M225.1,55.3c0,1.2-0.9,2.2-2.3,2.2c-1.4,0-2.3-1-2.3-2.2c0-1.3,0.9-2.2,2.3-2.2     C224.2,53.1,225,54.1,225.1,55.3z M220.6,73.2v-14h4.3v14H220.6z"/>
			<path class="st2" d="M238.9,72.8c-0.8,0.3-2.2,0.6-3.9,0.6c-4.5,0-7.4-2.7-7.4-7.1c0-4.1,2.8-7.4,8-7.4c1.1,0,2.4,0.2,3.3,0.5     l-0.7,3.2c-0.5-0.2-1.3-0.4-2.4-0.4c-2.3,0-3.8,1.6-3.7,3.9c0,2.6,1.7,3.9,3.8,3.9c1,0,1.8-0.2,2.5-0.4L238.9,72.8z"/>
			<path class="st2" d="M245.8,55.3c0,1.2-0.9,2.2-2.3,2.2c-1.4,0-2.3-1-2.3-2.2c0-1.3,0.9-2.2,2.3-2.2S245.7,54.1,245.8,55.3z      M241.3,73.2v-14h4.3v14H241.3z"/>
			<path class="st2" d="M249.1,63.7c0-1.7-0.1-3.2-0.1-4.5h3.8l0.2,1.9h0.1c0.6-0.9,2-2.2,4.3-2.2c2.9,0,5,1.9,5,6v8.3h-4.3v-7.7     c0-1.8-0.6-3-2.2-3c-1.2,0-1.9,0.8-2.2,1.6c-0.1,0.3-0.2,0.7-0.2,1.1v8.1h-4.3v-9.6H249.1z"/>
			<path class="st2" d="M273.8,73.2l-0.3-1.4h-0.1c-0.9,1.1-2.3,1.7-4,1.7c-2.8,0-4.5-2.1-4.5-4.3c0-3.6,3.3-5.4,8.2-5.3v-0.2     c0-0.7-0.4-1.8-2.5-1.8c-1.4,0-2.9,0.5-3.9,1.1l-0.8-2.8c1-0.5,2.9-1.2,5.4-1.2c4.7,0,6.1,2.7,6.1,6v4.9c0,1.3,0.1,2.6,0.2,3.4     L273.8,73.2L273.8,73.2z M273.3,66.6c-2.3,0-4.1,0.5-4.1,2.2c0,1.1,0.7,1.7,1.7,1.7c1.1,0,2-0.7,2.3-1.6c0.1-0.2,0.1-0.5,0.1-0.7     V66.6z"/>
		</g>
	</g>
</g>
</svg>